<?xml version="1.0" encoding="UTF-8" standalone="no"?>
<!-- Created with Inkscape (http://www.inkscape.org/) -->

<svg
   width="110mm"
   height="110mm"
   viewBox="0 0 106.6292 101.40916"
   version="1.1"
   id="svg372"
   sodipodi:docname="logo.svg"
   inkscape:export-filename="/home/jasper/logo.png"
   inkscape:export-xdpi="118.22546"
   inkscape:export-ydpi="118.22546"
   inkscape:version="1.1.2 (0a00cf5339, 2022-02-04)"
   xmlns:inkscape="http://www.inkscape.org/namespaces/inkscape"
   xmlns:sodipodi="http://sodipodi.sourceforge.net/DTD/sodipodi-0.dtd"
   xmlns="http://www.w3.org/2000/svg"
   xmlns:svg="http://www.w3.org/2000/svg">
  <sodipodi:namedview
     id="namedview3744"
     pagecolor="#ffffff"
     bordercolor="#666666"
     borderopacity="1.0"
     inkscape:pageshadow="2"
     inkscape:pageopacity="0.0"
     inkscape:pagecheckerboard="0"
     inkscape:document-units="mm"
     showgrid="false"
     inkscape:zoom="2.0402908"
     inkscape:cx="194.82517"
     inkscape:cy="170.80898"
     inkscape:window-width="1850"
     inkscape:window-height="1016"
     inkscape:window-x="0"
     inkscape:window-y="0"
     inkscape:window-maximized="1"
     inkscape:current-layer="svg372"
     inkscape:lockguides="false" />
  <defs
     id="defs369">
    <linearGradient
       id="linearGradient3428">
      <stop
         style="stop-color:#0857b1;stop-opacity:1;"
         offset="0"
         id="stop3426" />
    </linearGradient>
  </defs>
  <g
     id="layer1"
     transform="translate(-2.8209361,-5.104575)"
     style="fill:#000000">
    <path
       d="m 100.93691,53.199478 h -3.5e-4 C 100.93476,65.55799 95.920057,76.733991 87.798759,84.862344 79.670406,92.983642 68.494405,97.998732 56.13554,98.000492 43.776675,97.998732 32.600604,92.983642 24.472392,84.862344 16.350777,76.733991 11.336111,65.55799 11.334171,53.199478 H 2.8209366 c -0.0019,14.691784 5.986745,28.044777 15.6315144,37.682666 9.638277,9.644946 22.991305,15.633696 37.683089,15.631586 14.691785,0.002 28.044777,-5.98664 37.683019,-15.631586 9.644591,-9.637889 15.633351,-22.990882 15.631581,-37.682666 h -8.51323"
       style="fill:#000000;fill-opacity:1;fill-rule:nonzero;stroke:none;stroke-width:0.0352778"
       id="path18" />
    <path
       d="m 56.13554,93.172732 c 11.01337,0.0018 21.031202,-4.49051 28.253622,-11.719633 C 91.618284,74.23068 96.11091,64.212848 96.109146,53.199478 h -8.513587 v 0 c -0.0018,8.680098 -3.52037,16.52129 -9.226198,22.233468 -5.712531,5.705828 -13.55337,9.224787 -22.233821,9.226198 -8.680803,-0.0014 -16.52129,-3.520017 -22.233926,-9.226198 -5.705899,-5.712178 -9.224293,-13.55337 -9.226233,-22.233468 h -8.513375 c -0.0019,11.01337 4.490896,21.031202 11.719666,28.253621 7.222561,7.229123 17.240145,11.721393 28.253868,11.719633"
       style="fill:#000000;fill-opacity:1;fill-rule:nonzero;stroke:none;stroke-width:0.0352778"
       id="path20" />
    <path
       d="m 29.502933,53.199478 c -0.0017,7.335309 2.994731,14.017626 7.807819,18.824576 4.806456,4.812948 11.489126,7.809795 18.824788,7.807679 7.335662,0.0021 14.017979,-2.994731 18.824929,-7.807679 4.812948,-4.80695 7.809442,-11.489267 7.807679,-18.824576 h -8.513234 -3.53e-4 c -0.0018,5.002389 -2.024239,9.508067 -5.314245,12.804423 -3.296708,3.290359 -7.802034,5.312481 -12.804776,5.314245 -5.002742,-0.0018 -9.508067,-2.023886 -12.804776,-5.314245 -3.290358,-3.296356 -5.312516,-7.802034 -5.314456,-12.804423 h -8.513375"
       style="fill:#000000;fill-opacity:1;fill-rule:nonzero;stroke:none;stroke-width:0.0352778"
       id="path22" />
    <path
       d="m 56.13554,47.791042 c 2.986617,0 5.407731,2.421467 5.407731,5.408436 0,2.985911 -2.421114,5.407378 -5.407731,5.407378 -2.986617,0 -5.407731,-2.421467 -5.407731,-5.407378 0,-2.986969 2.421114,-5.408436 5.407731,-5.408436 z m 0,18.246726 c 7.090481,0 12.83829,-5.748162 12.83829,-12.83829 0,-7.090834 -5.747809,-12.838642 -12.83829,-12.838642 -7.090481,0 -12.838643,5.747808 -12.838643,12.838642 0,7.090128 5.748162,12.83829 12.838643,12.83829"
       style="fill:#000000;fill-opacity:1;fill-rule:nonzero;stroke:none;stroke-width:0.0352778"
       id="path24" />
    <path
       d="m 56.093215,35.217688 c 9.376964,0 17.180849,6.699603 18.64358,15.449551 H 95.783767 V 29.790202 c 0,0 -24.146095,-2.752373 -39.690552,-8.110362 -15.544456,5.357989 -39.69084,8.110362 -39.69084,8.110362 v 20.877037 h 21.047189 c 1.462803,-8.749948 9.266327,-15.449551 18.643651,-15.449551"
       style="fill:#000000;fill-opacity:1;fill-rule:nonzero;stroke:none;stroke-width:0.0357257"
       id="path26" />
    <path
       d="m 55.832189,18.164409 1.182012,0.392995 c 7.439291,2.451805 16.912398,4.355747 24.847568,5.682192 V 10.508778 c 0,0 -16.5073,-1.927578 -26.02958,-5.404203 -9.522657,3.476625 -26.029617,5.404203 -26.029617,5.404203 v 13.730818 c 7.943905,-1.326445 17.42458,-3.238148 24.847605,-5.682192 l 1.182012,-0.392995"
       style="fill:#000000;fill-opacity:1;fill-rule:nonzero;stroke:none;stroke-width:0.036529"
       id="path28" />
  </g>
</svg>
